<svg xmlns="http://www.w3.org/2000/svg" xmlns:xlink="http://www.w3.org/1999/xlink" width="300" height="300" viewBox="0 0 300 300">
  <defs>
    <clipPath id="clip-kenta-blocks-logo-product">
      <rect width="300" height="300"/>
    </clipPath>
  </defs>
  <g id="kenta-blocks-logo-product" clip-path="url(#clip-kenta-blocks-logo-product)">
    <rect width="300" height="300" fill="#1a58c7"/>
    <path id="Path_2" data-name="Path 2" d="M100.044,200.088a15.158,15.158,0,0,1-3.757-.466,14.137,14.137,0,0,1-3.577-1.459L8.057,151.99A15.3,15.3,0,0,1,0,138.522V46.174a15.349,15.349,0,0,1,10.1-14.43L94.757.962a15.049,15.049,0,0,1,10.589,0L190,31.745a15.355,15.355,0,0,1,10.1,14.43h-.015v92.348a15.3,15.3,0,0,1-8.058,13.467l-84.652,46.174a14.137,14.137,0,0,1-3.578,1.459A15.153,15.153,0,0,1,100.044,200.088ZM184.7,62.043,107.74,90.063v90.425L184.7,138.522ZM54.18,121.843l9.338,18.222H80.379l-16.862-27.59L79.654,95.764H61.462L47.108,112.505V95.764H33.42v44.3H47.108V129.246l7.071-7.4h0ZM100.044,15.384h0L16.115,45.928l83.929,30.544,83.929-30.544L100.044,15.384Zm48.392,124.681H124.806v-44.3h25.625a18.533,18.533,0,0,1,5.662.793,11.088,11.088,0,0,1,4.174,2.38,10.845,10.845,0,0,1,2.818,11.506,9.786,9.786,0,0,1-1.836,3.09,10.953,10.953,0,0,1-4.774,2.961,16.246,16.246,0,0,1,4.144,1.56,9.848,9.848,0,0,1,2.882,2.383,9.744,9.744,0,0,1,1.688,3.154,12.7,12.7,0,0,1,.563,3.872,12.133,12.133,0,0,1-1.6,6.195,11.85,11.85,0,0,1-4.382,4.352,14.533,14.533,0,0,1-5.2,1.45A60.3,60.3,0,0,1,148.437,140.064Zm-9.821-18.494v8.975h6.98c2.346,0,4.023-.422,4.986-1.254a4.246,4.246,0,0,0,1.451-3.369,3.92,3.92,0,0,0-1.436-3.158c-.952-.792-2.645-1.193-5.031-1.193Zm0-16.832v8.4h5.953c2.126,0,3.625-.371,4.457-1.1a4.036,4.036,0,0,0,1.254-3.188,3.8,3.8,0,0,0-1.254-3.022c-.832-.722-2.3-1.088-4.366-1.088Z" transform="translate(49.722 49.72)" fill="#fff"/>
  </g>
</svg>
